<svg width="346" height="392" viewBox="0 0 346 392" fill="none" xmlns="http://www.w3.org/2000/svg">
<rect y="27" width="67" height="365" rx="33.5" fill="url(#paint0_linear_102_10)" fill-opacity="0.19"/>
<path d="M289 133.5C289 192.318 239.304 240 178 240C116.696 240 67 192.318 67 133.5C67 74.6817 116.696 27 178 27C239.304 27 289 74.6817 289 133.5Z" fill="#E2772B" fill-opacity="0.15"/>
<path d="M185.318 391.545C164.864 391.545 147.25 386.716 132.477 377.057C117.705 367.398 106.341 354.093 98.3864 337.142C90.4318 320.191 86.4545 300.826 86.4545 279.045C86.4545 256.886 90.5265 237.331 98.6705 220.381C106.909 203.335 118.367 190.03 133.045 180.466C147.818 170.807 165.053 165.977 184.75 165.977C200.091 165.977 213.917 168.818 226.227 174.5C238.538 180.182 248.623 188.136 256.483 198.364C264.343 208.591 269.22 220.523 271.114 234.159H237.591C235.034 224.216 229.352 215.409 220.545 207.739C211.833 199.973 200.091 196.091 185.318 196.091C172.25 196.091 160.792 199.5 150.943 206.318C141.189 213.042 133.566 222.559 128.074 234.869C122.676 247.085 119.977 261.432 119.977 277.909C119.977 294.765 122.629 309.443 127.932 321.943C133.33 334.443 140.905 344.15 150.659 351.062C160.508 357.975 172.061 361.432 185.318 361.432C194.03 361.432 201.938 359.917 209.04 356.886C216.142 353.856 222.155 349.5 227.08 343.818C232.004 338.136 235.508 331.318 237.591 323.364H271.114C269.22 336.242 264.532 347.843 257.051 358.165C249.665 368.392 239.864 376.536 227.648 382.597C215.527 388.562 201.417 391.545 185.318 391.545Z" fill="#00A1DE" fill-opacity="0.15"/>
<defs>
<linearGradient id="paint0_linear_102_10" x1="33.5" y1="27" x2="33.5" y2="392" gradientUnits="userSpaceOnUse">
<stop offset="0.0104167" stop-color="#00A1DE"/>
<stop offset="0.994792" stop-color="#FFB6B6"/>
</linearGradient>
</defs>
</svg>
